<?xml version="1.0" encoding="UTF-8" standalone="no" ?>
<!DOCTYPE svg PUBLIC "-//W3C//DTD SVG 1.0//EN"
         "http://www.w3.org/TR/SVG/DTD/svg10.dtd">
<svg width="800" height="600">
<line x1="130" y1="100" x2="530" y2="100" style="stroke-width:2;stroke:red"/>


<circle cx="80" cy="100" r="50" style="fill:white;stroke:red"/>
<text x="80" y="100" dy="0.25em" style="text-anchor:middle;fill:black;font-size:12">
animateMotion</text>
<rect x="140" y="70" width="40" height="60" style="fill:white;stroke:black"/>
<text x="160" y="90" dy="0.25em" style="text-anchor:middle;fill:black;font-size:12">
id
<tspan x="160" dy="15" fill="red">''</tspan>
<tspan x="160" dy="15" fill="green">name</tspan>
</text>
<rect x="190" y="70" width="60" height="60" style="fill:white;stroke:black"/>
<text x="220" y="90" dy="0.25em" style="text-anchor:middle;fill:black;font-size:12">
xlink:href
<tspan x="220" dy="15" fill="red">''</tspan>
<tspan x="220" dy="15" fill="green">uri</tspan>
</text>
<rect x="260" y="70" width="80" height="60" style="fill:white;stroke:black"/>
<text x="300" y="90" dy="0.25em" style="text-anchor:middle;fill:black;font-size:12">
attributeName
<tspan x="300" dy="15" style="fill:red;font-size:10">''</tspan>
<tspan x="300" dy="15" style="fill:green;font-size:10">name of attribute</tspan>
</text>
<rect x="350" y="70" width="80" height="60" style="fill:white;stroke:black"/>
<text x="390" y="90" dy="0.25em" style="text-anchor:middle;fill:black;font-size:12">
attributeType
<tspan x="390" dy="15" style="fill:red;font-size:10">auto</tspan>
<tspan x="390" dy="15" style="fill:green;font-size:10">CSS | XML</tspan>
</text>
<rect x="440" y="70" width="80" height="60" style="fill:white;stroke:black"/>
<text x="480" y="90" style="text-anchor:middle;fill:black;font-size:12">
additive
<tspan x="480" dy="15" style="fill:red;font-size:10">'replace'</tspan>
<tspan x="480" dy="15" style="fill:green;font-size:10">'sum'</tspan>
</text>
<rect x="530" y="70" width="80" height="60" style="fill:white;stroke:black"/>
<text x="570" y="90" style="text-anchor:middle;fill:black;font-size:12">
accumulate
<tspan x="570" dy="15" style="fill:red;font-size:10">'none'</tspan>
<tspan x="570" dy="15" style="fill:green;font-size:10">'sum'</tspan>
</text>


<line x1="135" y1="225" x2="590" y2="225" style="stroke-width:2;stroke:red"/>
<line x1="135" y1="350" x2="630" y2="350" style="stroke-width:2;stroke:red"/>

<line x1="135" y1="100" x2="135" y2="350" style="stroke-width:2;stroke:red"/>
<line x1="395" y1="210" x2="395" y2="240" style="stroke-width:2;stroke:red"/>
<line x1="465" y1="210" x2="465" y2="240" style="stroke-width:2;stroke:red"/>
<line x1="540" y1="210" x2="540" y2="240" style="stroke-width:2;stroke:red"/>
<line x1="630" y1="340" x2="630" y2="360" style="stroke-width:2;stroke:red"/>

<path d="M80 150l0 300 100 0" style="fill:none;stroke-width:2;stroke:blue"/>
<circle cx="180" cy="450" r="40" style="fill:white;stroke:red"/>
<text x="180" y="450" dy="0.25em" style="text-anchor:middle;fill:black;font-size:12">
mpath</text>
<line x1="220" y1="450" x2="280" y2="450" style="stroke-width:2;stroke:red"/>

<g transform="translate(90,350)">
<rect x="140" y="70" width="40" height="60" style="fill:white;stroke:black"/>
<text x="160" y="90" dy="0.25em" style="text-anchor:middle;fill:black;font-size:12">
id
<tspan x="160" dy="15" fill="red">''</tspan>
<tspan x="160" dy="15" fill="green">name</tspan>
</text>
<rect x="190" y="70" width="60" height="60" style="fill:white;stroke:black"/>
<text x="220" y="90" dy="0.25em" style="text-anchor:middle;fill:black;font-size:12">
xlink:href
<tspan x="220" dy="15" fill="red">''</tspan>
<tspan x="220" dy="15" fill="green">uri</tspan>
</text>
</g>


<rect x="140" y="150" width="100" height="150" style="fill:white;stroke:black"/>
<text x="190" y="170" dy="0.25em" style="text-anchor:middle;fill:black;font-size:12">
begin
<tspan x="190" dy="15" style="fill:red;font-size:10">''</tspan>
<tspan x="190" dy="15" style="fill:green;font-size:10">offset-value</tspan>
<tspan x="190" dy="15" style="fill:green;font-size:10">syncbase-value</tspan>
<tspan x="190" dy="15" style="fill:green;font-size:10">event-value</tspan>
<tspan x="190" dy="15" style="fill:green;font-size:10">repeat-value</tspan>
<tspan x="190" dy="15" style="fill:green;font-size:10">accessKey-value</tspan>
<tspan x="190" dy="15" style="fill:green;font-size:10">wallclock-sync-value</tspan>
<tspan x="190" dy="15" style="fill:green;font-size:10">'indefinite'</tspan>
</text>
<rect x="250" y="150" width="100" height="150" style="fill:white;stroke:black"/>
<text x="300" y="170" dy="0.25em" style="text-anchor:middle;fill:black;font-size:12">
end
<tspan x="300" dy="15" style="fill:red;font-size:10">''</tspan>
<tspan x="300" dy="15" style="fill:green;font-size:10">offset-value</tspan>
<tspan x="300" dy="15" style="fill:green;font-size:10">syncbase-value</tspan>
<tspan x="300" dy="15" style="fill:green;font-size:10">event-value</tspan>
<tspan x="300" dy="15" style="fill:green;font-size:10">repeat-value</tspan>
<tspan x="300" dy="15" style="fill:green;font-size:10">accessKey-value</tspan>
<tspan x="300" dy="15" style="fill:green;font-size:10">wallclock-sync-value</tspan>
<tspan x="300" dy="15" style="fill:green;font-size:10">'indefinite'</tspan>
</text>

<rect x="360" y="150" width="70" height="60" style="fill:white;stroke:black"/>
<text x="395" y="165" style="text-anchor:middle;fill:black;font-size:12">
dur
<tspan x="395" dy="12" style="fill:red;font-size:10">''</tspan>
<tspan x="395" dy="12" style="fill:green;font-size:10">Clock-value</tspan>
<tspan x="395" dy="12" style="fill:green;font-size:10">'indefinite'</tspan>
</text>
<rect x="360" y="240" width="70" height="60" style="fill:white;stroke:black"/>
<text x="395" y="255" style="text-anchor:middle;fill:black;font-size:12">
restart
<tspan x="395" dy="12" style="fill:red;font-size:10">'always'</tspan>
<tspan x="395" dy="12" style="fill:green;font-size:10">'whenNotActive'</tspan>
<tspan x="395" dy="12" style="fill:green;font-size:10">'never'</tspan>
</text>

<rect x="440" y="150" width="50" height="60" style="fill:white;stroke:black"/>
<text x="465" y="165" style="text-anchor:middle;fill:black;font-size:12">
min
<tspan x="465" dy="15" style="fill:red;font-size:10">''</tspan>
<tspan x="465" dy="15" style="fill:green;font-size:10">Clock-value</tspan>
</text>
<rect x="440" y="240" width="50" height="60" style="fill:white;stroke:black"/>
<text x="465" y="255" style="text-anchor:middle;fill:black;font-size:12">
max
<tspan x="465" dy="15" style="fill:red;font-size:10">''</tspan>
<tspan x="465" dy="15" style="fill:green;font-size:10">Clock-value</tspan>
</text>

<rect x="500" y="150" width="80" height="60" style="fill:white;stroke:black"/>
<text x="540" y="165" style="text-anchor:middle;fill:black;font-size:12">
repeatCount
<tspan x="540" dy="12" style="fill:red;font-size:10">''</tspan>
<tspan x="540" dy="12" style="fill:green;font-size:10">integer</tspan>
<tspan x="540" dy="12" style="fill:green;font-size:10">'indefinite'</tspan>
</text>
<rect x="500" y="240" width="80" height="60" style="fill:white;stroke:black"/>
<text x="540" y="255" style="text-anchor:middle;fill:black;font-size:12">
repeatDur
<tspan x="540" dy="12" style="fill:red;font-size:10">''</tspan>
<tspan x="540" dy="12" style="fill:green;font-size:10">Clock-value</tspan>
<tspan x="540" dy="12" style="fill:green;font-size:10">'indefinite'</tspan>
</text>
<rect x="590" y="195" width="50" height="60" style="fill:white;stroke:black"/>
<text x="615" y="210" style="text-anchor:middle;fill:black;font-size:12">
fill
<tspan x="615" dy="15" style="fill:red;font-size:10">'remove'</tspan>
<tspan x="615" dy="15" style="fill:green;font-size:10">'freeze'</tspan>
</text>
<rect x="140" y="320" width="40" height="60" style="fill:white;stroke:black"/>
<text x="160" y="340" dy="-0.25em" style="text-anchor:middle;fill:black;font-size:12">
from
<tspan x="160" dy="15" style="fill:red;font-size:10">''</tspan>
<tspan x="160" dy="15" style="fill:green;font-size:10">point</tspan>
</text>
<g transform="translate(50,0)">
<rect x="140" y="320" width="40" height="60" style="fill:white;stroke:black"/>
<text x="160" y="340" dy="-0.25em" style="text-anchor:middle;fill:black;font-size:12">
to
<tspan x="160" dy="15" style="fill:red;font-size:10">''</tspan>
<tspan x="160" dy="15" style="fill:green;font-size:10">point</tspan>
</text>
</g>
<g transform="translate(100,0)">
<rect x="140" y="320" width="40" height="60" style="fill:white;stroke:black"/>
<text x="160" y="340" dy="-0.25em" style="text-anchor:middle;fill:black;font-size:12">
by
<tspan x="160" dy="15" style="fill:red;font-size:10">''</tspan>
<tspan x="160" dy="15" style="fill:green;font-size:10">point</tspan>
</text>
</g>
<g transform="translate(150,0)">
<rect x="140" y="320" width="40" height="60" style="fill:white;stroke:black"/>
<text x="160" y="340" dy="-0.25em" style="text-anchor:middle;fill:black;font-size:12">
values
<tspan x="160" dy="15" style="fill:red;font-size:10">''</tspan>
<tspan x="160" dy="15" style="fill:green;font-size:10">list-points</tspan>
</text>
</g>

<rect x="340" y="320" width="60" height="60" style="fill:white;stroke:black"/>
<text x="370" y="335" style="text-anchor:middle;fill:black;font-size:12">
keyTimes
<tspan x="370" dy="15" style="fill:red;font-size:10">''</tspan>
<tspan x="370" dy="15" style="fill:green;font-size:10">list-values</tspan>
</text>
<rect x="410" y="320" width="60" height="60" style="fill:white;stroke:black"/>
<text x="440" y="335" style="text-anchor:middle;fill:black;font-size:12">
keySplines
<tspan x="440" dy="15" style="fill:red;font-size:10">''</tspan>
<tspan x="440" dy="15" style="fill:green;font-size:10">list-values</tspan>
</text>
<rect x="480" y="320" width="60" height="60" style="fill:white;stroke:black"/>
<text x="510" y="335" style="text-anchor:middle;fill:black;font-size:12">
keyPoints
<tspan x="510" dy="15" style="fill:red;font-size:10">''</tspan>
<tspan x="510" dy="15" style="fill:green;font-size:10">list-values</tspan>
</text>
<rect x="550" y="320" width="40" height="60" style="fill:white;stroke:black"/>
<text x="570" y="335" style="text-anchor:middle;fill:black;font-size:12">
path
<tspan x="570" dy="15" style="fill:red;font-size:10">''</tspan>
<tspan x="570" dy="15" style="fill:green;font-size:10">d-value</tspan>
</text>
<rect x="600" y="260" width="60" height="80" style="fill:white;stroke:black"/>
<text x="630" y="275" style="text-anchor:middle;fill:black;font-size:12">
calcMode
<tspan x="630" dy="15" style="fill:red;font-size:10">'paced'</tspan>
<tspan x="630" dy="15" style="fill:green;font-size:10">'discrete'</tspan>
<tspan x="630" dy="15" style="fill:green;font-size:10">'linear'</tspan>
<tspan x="630" dy="15" style="fill:green;font-size:10">'spline'</tspan>
</text>
<rect x="600" y="360" width="60" height="80" style="fill:white;stroke:black"/>
<text x="630" y="375" style="text-anchor:middle;fill:black;font-size:12">
rotate
<tspan x="630" dy="15" style="fill:red;font-size:10">0</tspan>
<tspan x="630" dy="15" style="fill:green;font-size:10">angle</tspan>
<tspan x="630" dy="15" style="fill:green;font-size:10">'auto'</tspan>
<tspan x="630" dy="15" style="fill:green;font-size:10">'auto-reverse'</tspan>
</text>
</svg>