<?xml version="1.0" encoding="UTF-8" standalone="no" ?>
<!DOCTYPE svg PUBLIC "-//W3C//DTD SVG 1.0//EN"
         "http://www.w3.org/TR/SVG/DTD/svg10.dtd">
<svg id="root" xml:space="preserve" width="600" height="400" onload="OnLoadEvent(evt)">
<script><![CDATA[
var appui=false;
var xA1=50,yA1=250,xC1=100,yC1=250,xC2=200,yC2=50,xA2=250,yA2=50;
var keyspline="0.25 0 0.75 1";
var cible="";
function cliquer(evt)
{cible=evt.getTarget().getAttribute("id");
if ((cible=="C1")||(cible=="C2"))
{appui=true;}}

function bouger(evt)
{if (appui==true)
{obj=evt.getTarget().getOwnerDocument().getElementById(cible);
xm=parseInt(evt.getClientX());ym=parseInt(evt.getClientY());
if (xm<50) {xm=50};if (xm>250) {xm=250};
if (ym<50) {ym=50};if (ym>250) {ym=250};
obj.setAttribute("cx",xm);obj.setAttribute("cy",ym);
if (cible=="C1") {xC1=xm;yC1=ym};
if (cible=="C2") {xC2=xm;yC2=ym};
calcul();
}}

function calcul()
{trace="M"+xA1+" "+yA1+"C"+xC1+","+yC1+" "+xC2+","+yC2+" "+xA2+","+yA2;
courbe.setAttribute("d",trace);
x1=(xC1-50)/200;y1=(250-yC1)/200;x2=(xC2-50)/200;y2=(250-yC2)/200;
keyspline=x1.toString(10)+" "+y1.toString(10)+" "+x2.toString(10)+" "+y2.toString(10);
ks.firstChild.setData(keyspline);
vitesse();
}

function vitesse()
{x1=50;y1=250;chaine="M";
for (i=1;i<=10;i++)
{k=i/10;
x2=(1-k)*(1-k)*(1-k)*xA1+3*k*(1-k)*(1-k)*xC1+3*k*k*(1-k)*xC2+k*k*k*xA2;
y2=(1-k)*(1-k)*(1-k)*yA1+3*k*(1-k)*(1-k)*yC1+3*k*k*(1-k)*yC2+k*k*k*yA2;
v=(y1-y2)/(x2-x1);
chaine=chaine+(250+(x1+x2)/2).toString(10)+" "+(250-15*v).toString(10)+" ";
x1=x2;y1=y2;
}
speed.setAttribute("d",chaine);
anime.setAttribute("keySplines",keyspline);
}

function lacher(evt)
{appui=false}
function OnLoadEvent(evt)
{ var doc = evt.getTarget() != null ? evt.getTarget().getOwnerDocument() : null;
   if (doc != null)
   {
    	C1 = doc.getElementById("C1");
	C2 = doc.getElementById("C2");
        ks = doc.getElementById("ks");
        speed = doc.getElementById("speed");
        anime = doc.getElementById("anime");
	courbe = doc.getElementById("courbe");
  }
vitesse();
}
]]></script>
<defs>
<mask id="masque" maskUnits="userSpaceOnUse" x="300" y="50" width="200" height="200">
<path id="speed" d="M0 0" style="stroke:white;fill:none"/>
</mask>
</defs>
<g onmousedown="cliquer(evt)" onmousemove="bouger(evt)" onmouseup="lacher(evt)">
<rect x="0" y="0" width="600" height="400" style="fill:#E0E0E0"/> 
<rect x="50" y="50" width="200" height="200" style="stroke:blue;fill:white"/>
<path d="M50 70l200 0M50 90l200 0M50 110l200 0M50 130l200 0M50 150l200 0M50 170l200 0M50 190l200 0M50 210l200 0M50 230l200 0" style="stroke:gray;fill:none;stroke-opacity:0.5"/>
<path d="M70 50l0 200M90 50l0 200M110 50l0 200M130 50l0 200M150 50l0 200M170 50l0 200M190 50l0 200M210 50l0 200M230 50l0 200" style="stroke:gray;fill:none;stroke-opacity:0.5"/>
<text x="300" y="20" style="text-anchor:middle">keySplines</text>
<rect x="300" y="50" width="200" height="200" style="stroke:blue;fill:white"/>
<g transform="translate(250,0)" style="stroke:gray;fill:none;stroke-opacity:0.5">
<path d="M50 70l200 0M50 90l200 0M50 110l200 0M50 130l200 0M50 150l200 0M50 170l200 0M50 190l200 0M50 210l200 0M50 230l200 0"/>
<path d="M70 50l0 200M90 50l0 200M110 50l0 200M130 50l0 200M150 50l0 200M170 50l0 200M190 50l0 200M210 50l0 200M230 50l0 200"/>
</g>
<rect mask="url(#masque)" x="300" y="50" width="200" height="200" style="stroke:none;fill:red"/>
<path id="courbe" d="M50 250C100,250 200,50 250,50" style="stroke:blue;fill:none"/>
<circle id="A1" cx="50" cy="250" r="3" style="stroke:green; fill:green"/>
<circle id="A2" cx="250" cy="50" r="3" style="stroke:green; fill:green"/>
<circle id="C1" cx="100" cy="250" r="3" style="stroke:red; fill:red"/>
<circle id="C2" cx="200" cy="50" r="3" style="stroke:red; fill:red"/>
</g>
<text x="70" y="280" >keySplines <tspan id="ks">0.25 0 0.75 1</tspan></text>
<text x="400" y="280" style="text-anchor:middle">instant speed</text>
<rect x="20" y="300" width="510" height="20" style="stroke:blue;fill:white"/>
<rect x="20" y="300" width="10" height="20" style="fill:green">
<animate id="anime" fill="freeze" attributeName="width" repeatCount="1" values="10;510" dur="5s" calcMode="spline" begin="go.click" keySplines="0.25 0 0.75 1"/>
</rect>
<text x="50" y="350" >Test animation</text>
<rect id="go" x="40" y="335" width="100" height="20" style="fill:red;fill-opacity:0.2"/>
</svg>

