<?xml version="1.0" encoding="UTF-8" standalone="no" ?>
<!DOCTYPE svg PUBLIC "-//W3C//DTD SVG 1.0//EN"
         "http://www.w3.org/TR/SVG/DTD/svg10.dtd">
<svg width="400" height="400">
<rect id="bk" x="0" y="0" width="400" height="400" style="fill-opacity:0.4;fill:green"/>
<text x="200" y="40" style="text-anchor:middle;font-size:25">Drop down list</text>
<text x="200" y="70" style="text-anchor:middle;font-size:25">without javascript, SMIL only</text>
<rect x="40" y="100" width="320" height="80" fill="white">
<set attributeName="fill" fill="freeze" to="red" begin="red.click"/>
<set attributeName="fill" fill="freeze" to="yellow" begin="yellow.click"/>
<set attributeName="fill" fill="freeze" to="blue" begin="blue.click"/>
<set attributeName="fill" fill="freeze" to="fuchsia" begin="fuchsia.click"/>
</rect>
<text x="200" y="250" style="text-anchor:middle;font-size:15">Choose color for rectangle :</text>
<rect x="120" y="270" width="100" height="15" style="fill:white;stroke:none"/>
<text x="130" y="282" style="font-size:12">choose color</text>
<rect x="220" y="270" width="15" height="15" style="fill:white;stroke:black"/>
<path d="M222 272l11 0 -5.5 11z" style="fill:black"/>
<rect id="go" x="220" y="270" width="15" height="15" style="fill:white;fill-opacity:0"/>
<g display="none">
<rect x="120" y="285" width="100" height="60" fill="white"/>
<text x="130" y="297" style="text-anchor:left;font-size:12">red</text>
<rect id="red" x="120" y="285" width="100" height="15" style="fill:black;fill-opacity:0">
<set attributeName="fill-opacity" to="0.2" begin="red.mouseover" end="red.mouseout"/>
</rect>
<text x="130" y="312" style="font-size:12">yellow</text>
<rect id="yellow" x="120" y="300" width="100" height="15" style="fill:black;fill-opacity:0">
<set attributeName="fill-opacity" to="0.2" begin="yellow.mouseover" end="yellow.mouseout"/>
</rect>
<text x="130" y="327" style="font-size:12">blue</text>
<rect id="blue" x="120" y="315" width="100" height="15" style="fill:black;fill-opacity:0">
<set attributeName="fill-opacity" to="0.2" begin="blue.mouseover" end="blue.mouseout"/>
</rect>
<text x="130" y="342" style="font-size:12">fuchsia</text>
<rect id="fuchsia" x="120" y="330" width="100" height="15" style="fill:black;fill-opacity:0">
<set attributeName="fill-opacity" to="0.2" begin="fuchsia.mouseover" end="fuchsia.mouseout"/>
</rect>
<set attributeName="display" to="inline" begin="go.click" end="red.click;blue.click;yellow.click;fuchsia.click;bk.click"/>
</g>
</svg>