<?xml version="1.0" encoding="UTF-8" standalone="no" ?>
<!DOCTYPE svg PUBLIC "-//W3C//DTD SVG 1.0//EN"
         "http://www.w3.org/TR/SVG/DTD/svg10.dtd">
<svg width="800" height="600">
<line x1="130" y1="100" x2="325" y2="100" style="stroke-width:2;stroke:red"/>
<path d="M80 150l0 50" style="stroke-width:2;stroke:blue;fill:none"/>

<path d="M80 200l0 20 150 0" style="stroke-width:2;stroke:blue;fill:none"/>
<path d="M250 260l0 40 100 0" style="stroke-width:2;stroke:blue;fill:none"/>

<g transform="translate(100,-20)">
<circle cx="190" cy="320" r="30" style="fill:white;stroke:red"/>
<text x="190" y="320" dy="0.25em" style="text-anchor:middle;fill:black;font-size:12">
set</text>
<circle cx="260" cy="320" r="30" style="fill:white;stroke:red"/>
<text x="260" y="320" dy="0.25em" style="text-anchor:middle;fill:black;font-size:12">
animate</text>
<path d="M290 320l200 0" style="stroke-dasharray:5 5;stroke-width:2;stroke:blue;fill:none"/>

</g>
<circle cx="80" cy="100" r="50" style="fill:white;stroke:red"/>
<text x="80" y="100" dy="0.25em" style="text-anchor:middle;fill:black;font-size:12">
feMerge</text>
<rect x="140" y="70" width="40" height="60" style="fill:white;stroke:black"/>
<text x="160" y="90" dy="0.25em" style="text-anchor:middle;fill:black;font-size:12">
id
<tspan x="160" dy="15" fill="red">''</tspan>
<tspan x="160" dy="15" fill="green">name</tspan>
</text>


<rect x="190" y="70" width="40" height="60" style="fill:white;stroke:black"/>
<text x="210" y="90" dy="0.25em" style="text-anchor:middle;fill:black;font-size:12">
result
<tspan x="210" dy="15" fill="red">''</tspan>
<tspan x="210" dy="15" fill="green">name</tspan>
</text>
<rect x="240" y="30" width="50" height="60" style="fill:white;stroke:black"/>
<text x="265" y="50" dy="0.25em" style="text-anchor:middle;fill:black;font-size:12">
x
<tspan x="265" dy="15" fill="red">0%</tspan>
<tspan x="265" dy="15" style="fill:green;font-size:10">coordinate</tspan>
</text>
<line x1="265" y1="90" x2="265" y2="110" style="stroke-width:2;stroke:red"/>
<line x1="325" y1="90" x2="325" y2="110" style="stroke-width:2;stroke:red"/>

<rect x="300" y="30" width="50" height="60" style="fill:white;stroke:black"/>
<text x="325" y="50" dy="0.25em" style="text-anchor:middle;fill:black;font-size:12">
y
<tspan x="325" dy="15" fill="red">0%</tspan>
<tspan x="325" dy="15" style="fill:green;font-size:10">coordinate</tspan>
</text>

<rect x="240" y="110" width="50" height="60" style="fill:white;stroke:black"/>
<text x="265" y="130" dy="0.25em" style="text-anchor:middle;fill:black;font-size:12">
width
<tspan x="265" dy="15" fill="red">100%</tspan>
<tspan x="265" dy="15" style="fill:green;font-size:10">coordinate</tspan>
</text>
<rect x="300" y="110" width="50" height="60" style="fill:white;stroke:black"/>
<text x="325" y="130" dy="0.25em" style="text-anchor:middle;fill:black;font-size:12">
height
<tspan x="325" dy="15" fill="red">100%</tspan>
<tspan x="325" dy="15" style="fill:green;font-size:10">coordinate</tspan>
</text>

<circle cx="250" cy="220" r="40" style="fill:white;stroke:red"/>
<text x="250" y="220" dy="0.25em" style="text-anchor:middle;fill:black;font-size:12">
feMergeNode
</text>
<line x1="290" y1="220" x2="425" y2="220" style="stroke-width:2;stroke:red"/>

<rect x="360" y="190" width="40" height="60" style="fill:white;stroke:black"/>
<text x="380" y="210" dy="0.25em" style="text-anchor:middle;fill:black;font-size:12">
id
<tspan x="380" dy="15" fill="red">''</tspan>
<tspan x="380" dy="15" fill="green">name</tspan>
</text>

<g transform="translate(50,120)">
<rect x="360" y="30" width="100" height="120" style="fill:white;stroke:black"/>
<text x="410" y="50" dy="-0.25em" style="text-anchor:middle;fill:black;font-size:10">
in
<tspan x="410" dy="12" fill="red">previous result</tspan>
<tspan x="410" dy="12" fill="red">SourceGraphic</tspan>
<tspan x="410" dy="12" fill="green">SourceAlpha</tspan>
<tspan x="410" dy="12" fill="green">BackgroundImage</tspan>
<tspan x="410" dy="12" fill="green">BackgroundAlpha</tspan>
<tspan x="410" dy="12" fill="green">FillPaint</tspan>
<tspan x="410" dy="12" fill="green">StrokePaint</tspan>
<tspan x="410" dy="12" fill="green">result name</tspan>
</text>
</g>

</svg>