<?xml version="1.0" encoding="UTF-8" standalone="no" ?>
<!DOCTYPE svg PUBLIC "-//W3C//DTD SVG 1.0//EN"
         "http://www.w3.org/TR/SVG/DTD/svg10.dtd">
<svg width="800" height="600">
<line x1="130" y1="100" x2="560" y2="100" style="stroke-width:2;stroke:red"/>

<path d="M80 150l0 70 150 0" style="stroke-width:2;stroke:blue;fill:none"/>

<g transform="translate(0,-100)">
<path d="M290 320l200 0" style="stroke-dasharray:5 5;stroke-width:2;stroke:blue;fill:none"/>
<circle cx="190" cy="320" r="30" style="fill:white;stroke:red"/>
<text x="190" y="320" dy="0.25em" style="text-anchor:middle;fill:black;font-size:12">
set</text>
<circle cx="260" cy="320" r="30" style="fill:white;stroke:red"/>
<text x="260" y="320" dy="0.25em" style="text-anchor:middle;fill:black;font-size:12">
animate</text>


</g>
<circle cx="80" cy="100" r="50" style="fill:white;stroke:red"/>
<text x="80" y="100" dy="0.25em" style="text-anchor:middle;fill:black;font-size:12">
feTurbulence</text>
<rect x="140" y="70" width="40" height="60" style="fill:white;stroke:black"/>
<text x="160" y="90" dy="0.25em" style="text-anchor:middle;fill:black;font-size:12">
id
<tspan x="160" dy="15" fill="red">''</tspan>
<tspan x="160" dy="15" fill="green">name</tspan>
</text>
<rect x="190" y="70" width="40" height="60" style="fill:white;stroke:black"/>
<text x="210" y="90" dy="0.25em" style="text-anchor:middle;fill:black;font-size:12">
result
<tspan x="210" dy="15" fill="red">''</tspan>
<tspan x="210" dy="15" fill="green">name</tspan>
</text>

<rect x="240" y="30" width="50" height="60" style="fill:white;stroke:black"/>
<text x="265" y="50" dy="0.25em" style="text-anchor:middle;fill:black;font-size:12">
x
<tspan x="265" dy="15" fill="red">0%</tspan>
<tspan x="265" dy="15" style="fill:green;font-size:10">coordinate</tspan>
</text>
<line x1="265" y1="90" x2="265" y2="110" style="stroke-width:2;stroke:red"/>
<line x1="325" y1="90" x2="325" y2="110" style="stroke-width:2;stroke:red"/>

<rect x="300" y="30" width="50" height="60" style="fill:white;stroke:black"/>
<text x="325" y="50" dy="0.25em" style="text-anchor:middle;fill:black;font-size:12">
y
<tspan x="325" dy="15" fill="red">0%</tspan>
<tspan x="325" dy="15" style="fill:green;font-size:10">coordinate</tspan>
</text>

<rect x="240" y="110" width="50" height="60" style="fill:white;stroke:black"/>
<text x="265" y="130" dy="0.25em" style="text-anchor:middle;fill:black;font-size:12">
width
<tspan x="265" dy="15" fill="red">100%</tspan>
<tspan x="265" dy="15" style="fill:green;font-size:10">coordinate</tspan>
</text>
<rect x="300" y="110" width="50" height="60" style="fill:white;stroke:black"/>
<text x="325" y="130" dy="0.25em" style="text-anchor:middle;fill:black;font-size:12">
height
<tspan x="325" dy="15" fill="red">100%</tspan>
<tspan x="325" dy="15" style="fill:green;font-size:10">coordinate</tspan>
</text>
<line x1="410" y1="90" x2="410" y2="110" style="stroke-width:2;stroke:red"/>

<rect x="360" y="30" width="100" height="60" style="fill:white;stroke:black"/>
<text x="410" y="50" dy="0.25em" style="text-anchor:middle;fill:black;font-size:12">
type
<tspan x="410" dy="15" fill="red">turbulence</tspan>
<tspan x="410" dy="15" style="fill:green;font-size:12">fractalNoise</tspan>
</text>

<rect x="360" y="110" width="100" height="60" style="fill:white;stroke:black"/>
<text x="410" y="130" dy="0.25em" style="text-anchor:middle;fill:black;font-size:12">
baseFrequency
<tspan x="410" dy="15" fill="red">0</tspan>
<tspan x="410" dy="15" style="fill:green;font-size:12">number-number</tspan>
</text>
<line x1="510" y1="90" x2="510" y2="110" style="stroke-width:2;stroke:red"/>

<rect x="470" y="30" width="80" height="60" style="fill:white;stroke:black"/>
<text x="510" y="50" dy="0.25em" style="text-anchor:middle;fill:black;font-size:12">
numOctaves
<tspan x="510" dy="15" fill="red">1</tspan>
<tspan x="510" dy="15" style="fill:green;font-size:12">number</tspan>
</text>

<rect x="470" y="110" width="80" height="60" style="fill:white;stroke:black"/>
<text x="510" y="130" dy="0.25em" style="text-anchor:middle;fill:black;font-size:12">
seed
<tspan x="510" dy="15" fill="red">0</tspan>
<tspan x="510" dy="15" style="fill:green;font-size:12">number</tspan>
</text>

<rect x="560" y="70" width="80" height="60" style="fill:white;stroke:black"/>
<text x="600" y="90" dy="0.25em" style="text-anchor:middle;fill:black;font-size:12">
stitchTiles
<tspan x="600" dy="15" fill="red">noStitch</tspan>
<tspan x="600" dy="15" style="fill:green;font-size:12">stitch</tspan>
</text>

</svg>