<?xml version="1.0" encoding="UTF-8" standalone="no" ?>
<!DOCTYPE svg PUBLIC "-//W3C//DTD SVG 1.0//EN"
         "http://www.w3.org/TR/SVG/DTD/svg10.dtd">
<svg width="800" height="600">
<line x1="130" y1="100" x2="400" y2="100" style="stroke-width:2;stroke:red"/>
<path d="M80 150l0 50" style="stroke-width:2;stroke:blue;fill:none"/>

<path d="M80 200l0 50 100 0" style="stroke-width:2;stroke:blue;fill:none"/>
<path d="M180 290l0 60 200 0" style="stroke-width:2;stroke:blue;fill:none"/>
<path d="M80 250l0 180 300 0" style="stroke-width:2;stroke:blue;fill:none"/>
<circle cx="180" cy="430" r="40" style="fill:white;stroke:red"/>
<text x="180" y="430" dy="0.25em" style="text-anchor:middle;fill:black;font-size:12">
feFuncG
</text>
<circle cx="270" cy="430" r="40" style="fill:white;stroke:red"/>
<text x="270" y="430" dy="0.25em" style="text-anchor:middle;fill:black;font-size:12">
feFuncB
</text>
<circle cx="360" cy="430" r="40" style="fill:white;stroke:red"/>
<text x="360" y="430" dy="0.25em" style="text-anchor:middle;fill:black;font-size:12">
feFuncA
</text>
<g transform="translate(100,30)">
<circle cx="190" cy="320" r="30" style="fill:white;stroke:red"/>
<text x="190" y="320" dy="0.25em" style="text-anchor:middle;fill:black;font-size:12">
set</text>
<circle cx="260" cy="320" r="30" style="fill:white;stroke:red"/>
<text x="260" y="320" dy="0.25em" style="text-anchor:middle;fill:black;font-size:12">
animate</text>
<path d="M290 320l200 0" style="stroke-dasharray:5 5;stroke-width:2;stroke:blue;fill:none"/>
</g>
<line x1="220" y1="250" x2="550" y2="250" style="stroke-width:2;stroke:red"/>
<circle cx="180" cy="250" r="40" style="fill:white;stroke:red"/>
<text x="180" y="250" dy="0.25em" style="text-anchor:middle;fill:black;font-size:12">
feFuncR
</text>
<rect x="230" y="220" width="40" height="60" style="fill:white;stroke:black"/>
<text x="250" y="240" dy="0.25em" style="text-anchor:middle;fill:black;font-size:12">
id
<tspan x="250" dy="15" fill="red">''</tspan>
<tspan x="250" dy="15" fill="green">name</tspan>
</text>
<rect x="280" y="190" width="100" height="120" style="fill:white;stroke:black"/>
<text x="330" y="210" dy="-0.25em" style="text-anchor:middle;fill:black;font-size:10">
type
<tspan x="330" dy="30" fill="green">identity</tspan>
<tspan x="330" dy="15" fill="green">table</tspan>
<tspan x="330" dy="15" fill="green">discrete</tspan>
<tspan x="330" dy="15" fill="green">linear</tspan>
<tspan x="330" dy="15" fill="green">gamma</tspan>
</text>
<line x1="415" y1="240" x2="415" y2="260" style="stroke-width:2;stroke:red"/>
<rect x="390" y="190" width="50" height="50" style="fill:white;stroke:black"/>
<text x="415" y="210" style="text-anchor:middle;fill:black;font-size:12">
slope
<tspan x="415" dy="15" fill="red">1</tspan>
<tspan x="415" dy="12" style="fill:green;font-size:12">number</tspan>
</text>
<rect x="390" y="260" width="50" height="50" style="fill:white;stroke:black"/>
<text x="415" y="280" style="text-anchor:middle;fill:black;font-size:12">
intercept
<tspan x="415" dy="15" fill="red">0</tspan>
<tspan x="415" dy="12" style="fill:green;font-size:12">number</tspan>
</text>
<line x1="480" y1="240" x2="480" y2="260" style="stroke-width:2;stroke:red"/>
<rect x="450" y="190" width="60" height="50" style="fill:white;stroke:black"/>
<text x="480" y="210" style="text-anchor:middle;fill:black;font-size:12">
amplitude
<tspan x="480" dy="15" fill="red">1</tspan>
<tspan x="480" dy="12" style="fill:green;font-size:12">number</tspan>
</text>
<rect x="450" y="260" width="60" height="50" style="fill:white;stroke:black"/>
<text x="480" y="280" style="text-anchor:middle;fill:black;font-size:12">
exponent
<tspan x="480" dy="15" fill="red">1</tspan>
<tspan x="480" dy="12" style="fill:green;font-size:12">number</tspan>
</text>

<line x1="550" y1="240" x2="550" y2="260" style="stroke-width:2;stroke:red"/>
<rect x="520" y="190" width="60" height="50" style="fill:white;stroke:black"/>
<text x="550" y="210" style="text-anchor:middle;fill:black;font-size:12">
offset
<tspan x="550" dy="15" fill="red">0</tspan>
<tspan x="550" dy="12" style="fill:green;font-size:12">number</tspan>
</text>
<rect x="520" y="260" width="60" height="50" style="fill:white;stroke:black"/>
<text x="550" y="280" style="text-anchor:middle;fill:black;font-size:10">
tableValues
<tspan x="550" dy="15" fill="red">''</tspan>
<tspan x="550" dy="12" style="fill:green;font-size:10">number-list</tspan>
</text>


<circle cx="80" cy="100" r="50" style="fill:white;stroke:red"/>
<text x="80" y="100" dy="-0.25em" style="text-anchor:middle;fill:black;font-size:12">
feComponent
<tspan x="80" dy="15">Transfer</tspan></text>
<rect x="140" y="70" width="40" height="60" style="fill:white;stroke:black"/>
<text x="160" y="90" dy="0.25em" style="text-anchor:middle;fill:black;font-size:12">
id
<tspan x="160" dy="15" fill="red">''</tspan>
<tspan x="160" dy="15" fill="green">name</tspan>
</text>
<rect x="360" y="30" width="100" height="120" style="fill:white;stroke:black"/>
<text x="410" y="50" dy="-0.25em" style="text-anchor:middle;fill:black;font-size:10">
in
<tspan x="410" dy="12" fill="red">previous result</tspan>
<tspan x="410" dy="12" fill="red">SourceGraphic</tspan>
<tspan x="410" dy="12" fill="green">SourceAlpha</tspan>
<tspan x="410" dy="12" fill="green">BackgroundImage</tspan>
<tspan x="410" dy="12" fill="green">BackgroundAlpha</tspan>
<tspan x="410" dy="12" fill="green">FillPaint</tspan>
<tspan x="410" dy="12" fill="green">StrokePaint</tspan>
<tspan x="410" dy="12" fill="green">result name</tspan>
</text>
<rect x="190" y="70" width="40" height="60" style="fill:white;stroke:black"/>
<text x="210" y="90" dy="0.25em" style="text-anchor:middle;fill:black;font-size:12">
result
<tspan x="210" dy="15" fill="red">''</tspan>
<tspan x="210" dy="15" fill="green">name</tspan>
</text>
<rect x="240" y="30" width="50" height="60" style="fill:white;stroke:black"/>
<text x="265" y="50" dy="0.25em" style="text-anchor:middle;fill:black;font-size:12">
x
<tspan x="265" dy="15" fill="red">0%</tspan>
<tspan x="265" dy="15" style="fill:green;font-size:10">coordinate</tspan>
</text>
<line x1="265" y1="90" x2="265" y2="110" style="stroke-width:2;stroke:red"/>
<line x1="325" y1="90" x2="325" y2="110" style="stroke-width:2;stroke:red"/>

<rect x="300" y="30" width="50" height="60" style="fill:white;stroke:black"/>
<text x="325" y="50" dy="0.25em" style="text-anchor:middle;fill:black;font-size:12">
y
<tspan x="325" dy="15" fill="red">0%</tspan>
<tspan x="325" dy="15" style="fill:green;font-size:10">coordinate</tspan>
</text>

<rect x="240" y="110" width="50" height="60" style="fill:white;stroke:black"/>
<text x="265" y="130" dy="0.25em" style="text-anchor:middle;fill:black;font-size:12">
width
<tspan x="265" dy="15" fill="red">100%</tspan>
<tspan x="265" dy="15" style="fill:green;font-size:10">coordinate</tspan>
</text>
<rect x="300" y="110" width="50" height="60" style="fill:white;stroke:black"/>
<text x="325" y="130" dy="0.25em" style="text-anchor:middle;fill:black;font-size:12">
height
<tspan x="325" dy="15" fill="red">100%</tspan>
<tspan x="325" dy="15" style="fill:green;font-size:10">coordinate</tspan>
</text>





</svg>