<?xml version="1.0" encoding="UTF-8" standalone="no" ?>
<!DOCTYPE svg PUBLIC "-//W3C//DTD SVG 1.0//EN"
         "http://www.w3.org/TR/SVG/DTD/svg10.dtd">
<svg width="800" height="600">
<line x1="130" y1="100" x2="430" y2="100" style="stroke-width:2;stroke:red"/>
<path d="M80 150l0 50 100 0" style="stroke-width:2;stroke:blue;fill:none"/>
<line x1="150" y1="200" x2="600" y2="200" style="stroke-width:2;stroke-dasharray:5 5;stroke:blue"/>

<path d="M80 200l0 70 150 0" style="stroke-width:2;stroke:blue;fill:none"/>

<g transform="translate(0,-50)">
<circle cx="190" cy="320" r="30" style="fill:white;stroke:red"/>
<text x="190" y="320" dy="0.25em" style="text-anchor:middle;fill:black;font-size:12">
set</text>
<circle cx="260" cy="320" r="30" style="fill:white;stroke:red"/>
<text x="260" y="320" dy="0.25em" style="text-anchor:middle;fill:black;font-size:12">
animate</text>
<path d="M290 320l200 0" style="stroke-dasharray:5 5;stroke-width:2;stroke:blue;fill:none"/>
<circle cx="330" cy="320" r="30" style="fill:white;stroke:red"/>
<text x="330" y="320" dy="-0.25em" style="text-anchor:middle;fill:black;font-size:12">
animate
<tspan x="330" dy="15">Transform</tspan></text>
<circle cx="400" cy="320" r="30" style="fill:white;stroke:red"/>
<text x="400" y="320" dy="-0.25em" style="text-anchor:middle;fill:black;font-size:12">
animate
<tspan x="400" dy="15">Color</tspan>
</text>
<circle cx="470" cy="320" r="30" style="fill:white;stroke:red"/>
<text x="470" y="320" dy="-0.25em" style="text-anchor:middle;fill:black;font-size:12">
animate
<tspan x="470" dy="15">Motion</tspan>
</text>



<circle cx="150" cy="250" r="30" style="fill:white;stroke:red"/>
<text x="150" y="250" dy="0.25em" style="text-anchor:middle;fill:black;font-size:12">
path</text>
<circle cx="220" cy="250" r="30" style="fill:white;stroke:red"/>
<text x="220" y="250" dy="0.25em" style="text-anchor:middle;fill:black;font-size:12">
text</text>
<circle cx="290" cy="250" r="30" style="fill:white;stroke:red"/>
<text x="290" y="250" dy="0.25em" style="text-anchor:middle;fill:black;font-size:12">
shape</text>
<circle cx="360" cy="250" r="30" style="fill:white;stroke:red"/>
<text x="360" y="250" dy="0.25em" style="text-anchor:middle;fill:black;font-size:12">
use</text>

</g>
<circle cx="80" cy="100" r="50" style="fill:white;stroke:red"/>
<text x="80" y="100" dy="0.25em" style="text-anchor:middle;fill:black;font-size:12">
clipPath</text>
<rect x="140" y="70" width="60" height="60" style="fill:white;stroke:black"/>
<text x="170" y="90" dy="0.25em" style="text-anchor:middle;fill:black;font-size:12">
id
<tspan x="170" dy="15" fill="red">''</tspan>
<tspan x="170" dy="15" fill="green">name</tspan>
</text>
<rect x="210" y="70" width="60" height="60" style="fill:white;stroke:black"/>
<text x="240" y="90" dy="0.25em" style="text-anchor:middle;fill:black;font-size:12">
xlink:href
<tspan x="240" dy="15" fill="red">''</tspan>
<tspan x="240" dy="15" fill="green">uri</tspan>
</text>
<rect x="280" y="70" width="100" height="60" style="fill:white;stroke:black"/>
<text x="330" y="90" dy="0.25em" style="text-anchor:middle;fill:black;font-size:12">
clipPathUnits
<tspan x="330" dy="15" style="fill:red;font-size:10">'userSpaceOnUse'</tspan>
<tspan x="330" dy="15" style="fill:green;font-size:10">'objectBoundingBox'</tspan>
</text>
<rect x="390" y="70" width="100" height="60" style="fill:white;stroke:black"/>
<text x="440" y="90" dy="0.25em" style="text-anchor:middle;fill:black;font-size:12">
transform
<tspan x="440" dy="15" style="fill:red;font-size:10">identity</tspan>
<tspan x="440" dy="15" style="fill:green;font-size:10">transform-list</tspan>
</text>

</svg>