<?xml version="1.0" encoding="UTF-8" standalone="no" ?>
<!DOCTYPE svg PUBLIC "-//W3C//DTD SVG 1.0//EN"
         "http://www.w3.org/TR/SVG/DTD/svg10.dtd">
<svg width="800" height="600">
<line x1="130" y1="100" x2="650" y2="100" style="stroke-width:2;stroke:red"/>
<line x1="650" y1="100" x2="650" y2="90" style="stroke-width:2;stroke:red"/>
<line x1="330" y1="90" x2="330" y2="110" style="stroke-width:2;stroke:red"/>
<line x1="510" y1="90" x2="510" y2="110" style="stroke-width:2;stroke:red"/>
<line x1="580" y1="90" x2="580" y2="110" style="stroke-width:2;stroke:red"/>
<path d="M80 150l0 100 100 0" style="stroke-width:2;stroke:blue;fill:none"/>
<line x1="220" y1="250" x2="600" y2="250" style="stroke-width:2;stroke:red"/>
<path d="M180 290l0 30 50 0" style="stroke-width:2;stroke:blue;fill:none"/>
<circle cx="260" cy="320" r="30" style="fill:white;stroke:red"/>
<text x="260" y="320" dy="0.25em" style="text-anchor:middle;fill:black;font-size:12">
set</text>
<path d="M290 320l200 0" style="stroke-dasharray:5 5;stroke-width:2;stroke:blue;fill:none"/>
<circle cx="330" cy="320" r="30" style="fill:white;stroke:red"/>
<text x="330" y="320" dy="0.25em" style="text-anchor:middle;fill:black;font-size:12">
animate</text>
<circle cx="400" cy="320" r="30" style="fill:white;stroke:red"/>
<text x="400" y="320" dy="-0.25em" style="text-anchor:middle;fill:black;font-size:12">
animate
<tspan x="400" dy="15">Color</tspan>
</text>
<path d="M80 250l0 140 150 0" style="stroke-width:2;stroke:blue;fill:none"/>

<g transform="translate(0,70)">
<circle cx="190" cy="320" r="30" style="fill:white;stroke:red"/>
<text x="190" y="320" dy="0.25em" style="text-anchor:middle;fill:black;font-size:12">
stop</text>
<circle cx="260" cy="320" r="30" style="fill:white;stroke:red"/>
<text x="260" y="320" dy="0.25em" style="text-anchor:middle;fill:black;font-size:12">
set</text>
<path d="M290 320l200 0" style="stroke-dasharray:5 5;stroke-width:2;stroke:blue;fill:none"/>
<circle cx="330" cy="320" r="30" style="fill:white;stroke:red"/>
<text x="330" y="320" dy="0.25em" style="text-anchor:middle;fill:black;font-size:12">
animate</text>
<circle cx="400" cy="320" r="30" style="fill:white;stroke:red"/>
<text x="400" y="320" dy="-0.25em" style="text-anchor:middle;fill:black;font-size:12">
animate
<tspan x="400" dy="15">Transform</tspan>
</text>
</g>

<circle cx="80" cy="100" r="50" style="fill:white;stroke:red"/>
<circle cx="180" cy="250" r="40" style="fill:white;stroke:red"/>
<text x="180" y="250" dy="0.25em" style="text-anchor:middle;fill:black;font-size:12">
stop</text>
<rect x="230" y="220" width="60" height="60" style="fill:white;stroke:black"/>
<text x="260" y="240" dy="0.25em" style="text-anchor:middle;fill:black;font-size:12">
id
<tspan x="260" dy="15" fill="red">''</tspan>
<tspan x="260" dy="15" fill="green">name</tspan>
</text>
<rect x="300" y="220" width="100" height="60" style="fill:white;stroke:black"/>
<text x="350" y="240" dy="0.25em" style="text-anchor:middle;fill:black;font-size:12">
offset
<tspan x="350" dy="15" fill="red">>= previous</tspan>
<tspan x="350" dy="15" fill="green">0 - 1 / 0% - 100%</tspan>
</text>
<rect x="410" y="220" width="100" height="60" rx="20" ry="20" style="fill:white;stroke:black"/>
<text x="460" y="240" dy="0.25em" style="text-anchor:middle;fill:black;font-size:12">
stop-color
<tspan x="460" dy="15" fill="red">black</tspan>
<tspan x="460" dy="15" fill="green">color</tspan>
</text>
<rect x="520" y="220" width="100" height="60" rx="20" ry="20" style="fill:white;stroke:black"/>
<text x="570" y="240" dy="0.25em" style="text-anchor:middle;fill:black;font-size:12">
stop-opacity
<tspan x="570" dy="15" fill="red">1</tspan>
<tspan x="570" dy="15" fill="green">0 - 1</tspan>
</text>
<text x="80" y="100" dy="0.25em" style="text-anchor:middle;fill:black;font-size:12">
radialGradient</text>
<rect x="140" y="70" width="60" height="60" style="fill:white;stroke:black"/>
<text x="170" y="90" dy="0.25em" style="text-anchor:middle;fill:black;font-size:12">
id
<tspan x="170" dy="15" fill="red">''</tspan>
<tspan x="170" dy="15" fill="green">name</tspan>
</text>
<rect x="210" y="70" width="60" height="60" style="fill:white;stroke:black"/>
<text x="240" y="90" dy="0.25em" style="text-anchor:middle;fill:black;font-size:12">
xlink:href
<tspan x="240" dy="15" fill="red">''</tspan>
<tspan x="240" dy="15" fill="green">uri</tspan>
</text>
<rect x="280" y="30" width="100" height="60" style="fill:white;stroke:black"/>
<text x="330" y="50" dy="0.25em" style="text-anchor:middle;fill:black;font-size:12">
gradientUnits
<tspan x="330" dy="15" style="fill:red;font-size:10">'objectBoundingBox'</tspan>
<tspan x="330" dy="15" style="fill:green;font-size:10">'userSpaceOnUse'</tspan></text>

<rect x="280" y="110" width="100" height="60" style="fill:white;stroke:black"/>
<text x="330" y="130" dy="0.25em" style="text-anchor:middle;fill:black;font-size:12">
gradientTransform
<tspan x="330" dy="15" style="fill:red;font-size:12">identity</tspan>
<tspan x="330" dy="15" style="fill:green;font-size:12">transform-list</tspan>
</text>


<rect x="390" y="60" width="80" height="80" style="fill:white;stroke:black"/>
<text x="430" y="80" dy="0.25em" style="text-anchor:middle;fill:black;font-size:12">
spreadMethod
<tspan x="430" dy="15" fill="red">'pad'</tspan>
<tspan x="430" dy="15" fill="green">'repeat'</tspan>
<tspan x="430" dy="15" fill="green">'reflect'</tspan>
</text>

<rect x="480" y="30" width="60" height="60" style="fill:white;stroke:black"/>
<text x="510" y="50" dy="0.25em" style="text-anchor:middle;fill:black;font-size:12">
cx
<tspan x="510" dy="15" fill="red">50%</tspan>
<tspan x="510" dy="15" style="fill:green;font-size:10">coordinate</tspan>
</text>

<rect x="550" y="30" width="60" height="60" style="fill:white;stroke:black"/>
<text x="580" y="50" dy="0.25em" style="text-anchor:middle;fill:black;font-size:12">
cy
<tspan x="580" dy="15" fill="red">50%</tspan>
<tspan x="580" dy="15" style="fill:green;font-size:10">coordinate</tspan>
</text>

<rect x="620" y="30" width="60" height="60" style="fill:white;stroke:black"/>
<text x="650" y="50" dy="0.25em" style="text-anchor:middle;fill:black;font-size:12">
r
<tspan x="650" dy="15" fill="red">50%</tspan>
<tspan x="650" dy="15" style="fill:green;font-size:10">length</tspan>
</text>

<rect x="480" y="110" width="60" height="60" style="fill:white;stroke:black"/>
<text x="510" y="130" dy="0.25em" style="text-anchor:middle;fill:black;font-size:12">
fx
<tspan x="510" dy="15" fill="red">cx value</tspan>
<tspan x="510" dy="15" style="fill:green;font-size:10">coordinate</tspan>
</text>

<rect x="550" y="110" width="60" height="60" style="fill:white;stroke:black"/>
<text x="580" y="130" dy="0.25em" style="text-anchor:middle;fill:black;font-size:12">
fy
<tspan x="580" dy="15" fill="red">cy value</tspan>
<tspan x="580" dy="15" style="fill:green;font-size:10">coordinate</tspan>
</text>
</svg>