<?xml version="1.0" standalone="no"?>
<!DOCTYPE svg PUBLIC "-//W3C//DTD SVG 1.0//EN"
	"http://www.w3.org/TR/2001/REC-SVG-20010904/DTD/svg10.dtd">
<svg width="800" height="600" viewBox="0 0 400 300">
	<defs>
		<pattern id="gridPattern" width="10" height="10" patternUnits="userSpaceOnUse">
			<path d="M10 0 L0 0 L0 10" style="fill:none;stroke:rgb(128,128,128);stroke-width:0.25"/>
		</pattern>
		<circle id="node" r="2" style="stroke-width:0.6;fill:rgb(255,255,255)"/>
		<path id="arrow" d="M0 0 L-10 -2 L-10 2 z"
			 style="stroke:none"/>
		<g id="coords" style="stroke:rgb(0,0,0)">
			<path d="M15 0 L0 0 L0 15" style="fill:none;stroke-width:0.5"/>
			<use xlink:href="#arrow" transform="translate(20 0) scale(0.5)"/>
			<use xlink:href="#arrow" transform="translate(0 20) rotate(90) scale(0.5)"/>
			<circle r="1" style="stroke-width:0.2;fill:rgb(255,255,255)"/>
		</g>
		<marker id="startArrow" viewBox="0 -4 8 8" markerUnits="userSpaceOnUse"
			refX="0" refY="0" markerWidth="8" markerHeight="8" orient="auto">
			<path d="M0 0 L8 -2 L8 2 zM0 -4 L0 4"
				 style="stroke:rgb(0,0,0)"/>
		</marker>
		<marker id="endArrow" viewBox="-10 -5 10 10" markerUnits="strokeWidth" refX="0"
			refY="0" markerWidth="10" markerHeight="10" orient="auto">
			<path d="M-10 -2 L0 0 L-10 2 zM0 -5 L0 5"
				 style="stroke:rgb(0,0,0)"/>
		</marker>
	</defs>
	<rect id="grid" width="200" height="100"
		 style="stroke:rgb(128,128,128);stroke-width:0.25;fill:url(#gridPattern)"/>
<!-- grid -->
	<use xlink:href="#coords"/>
	<text x="3" y="9" style="font-size:7">(0,0)</text>
<!-- example -->
	<defs>
		<pattern id="BgPat01" width="4" height="4" patternUnits="userSpaceOnUse">
			<rect fill="#306868" stroke="grey" stroke-width="0.1" width="4" height="4" />
		</pattern>
	</defs>
	<!--Background pattern-->

	<!--Text Watermark-->
	<text x="30" y="20"
			fill="silver" stroke="darkslategrey" stroke-width=".7" opacity="1"
			font-weight="bold" font-size="15" 
			writing-mode="lr-tb">left-to-right</text>
	<text x="120" y="60"
			fill="silver" stroke="darkslategrey" stroke-width=".7" opacity="1"
			font-weight="bold" font-size="15" 
			writing-mode="rl-tb">right-to-left</text>
	<text x="185" y="2"
			fill="silver" stroke="darkslategrey" stroke-width="3" opacity="0.6"
			font-weight="bold" font-size="33" 
			writing-mode="tb-rl">S V G</text>
<!-- dimensions -->
	<use xlink:href="#node" x="30" y="20"
		 style="stroke:rgb(47,79,79)"/>
	<text x="33" y="29" style="font-size:7">(30,20)</text>
	<use xlink:href="#node" x="120" y="60"
		 style="stroke:rgb(47,79,79)"/>
	<text x="123" y="69" style="font-size:7">(120,60)</text>
	<use xlink:href="#node" x="185" y="2"
		 style="stroke:rgb(47,79,79)"/>
	<text x="173" y="9" style="font-size:7">(185,2)</text>
</svg>
