<?xml version="1.0" standalone="no"?>
<!DOCTYPE svg PUBLIC "-//W3C//DTD SVG 1.0//EN"
	"http://www.w3.org/TR/2001/REC-SVG-20010904/DTD/svg10.dtd">
<svg width="800" height="600" viewBox="0 0 400 300">
	<defs>
		<pattern id="gridPattern" width="10" height="10" patternUnits="userSpaceOnUse">
			<path d="M10 0 L0 0 L0 10" style="fill:none;stroke:rgb(128,128,128);stroke-width:0.25"/>
		</pattern>
		<circle id="node" r="2" style="stroke-width:0.6;fill:rgb(255,255,255)"/>
		<path id="arrow" d="M0 0 L-10 -2 L-10 2 z"
			 style="stroke:none"/>
		<g id="coords" style="stroke:rgb(0,0,0)">
			<path d="M15 0 L0 0 L0 15" style="fill:none;stroke-width:0.5"/>
			<use xlink:href="#arrow" transform="translate(20 0) scale(0.5)"/>
			<use xlink:href="#arrow" transform="translate(0 20) rotate(90) scale(0.5)"/>
			<circle r="1" style="stroke-width:0.2;fill:rgb(255,255,255)"/>
		</g>
		<marker id="startArrow" viewBox="0 -4 8 8" markerUnits="userSpaceOnUse"
			refX="0" refY="0" markerWidth="8" markerHeight="8" orient="auto">
			<path d="M0 0 L8 -2 L8 2 zM0 -4 L0 4"
				 style="stroke:rgb(0,0,0)"/>
		</marker>
		<marker id="endArrow" viewBox="-8 -4 8 8" markerUnits="strokeWidth" refX="0"
			refY="0" markerWidth="8" markerHeight="8" orient="auto">
			<path d="M-8 -2 L0 0 L-8 2 zM0 -4 L0 4"
				 style="stroke:rgb(0,0,0)"/>
		</marker>
	</defs>
	<rect id="grid" width="200" height="100"
		 style="stroke:rgb(128,128,128);stroke-width:0.25;fill:url(#gridPattern)"/>
<!-- grid -->
	<use xlink:href="#coords"/>
	<text x="3" y="9" style="font-size:8">(0,0)</text>
<!-- example -->
	<text x="30" y="70" dx="30" font-size="50">Alpha</text>
<!-- dimensions -->
	<g id="dimensions">
		<text x="13" y="71" style="text-anchor:middle;font-size:6">baseline</text>
		<line x1="30" y1="20" x2="190" y2="20"
			 style="stroke:rgb(128,128,128)"/>
		<line x1="30" y1="70" x2="190" y2="70"
			 style="stroke:rgb(128,128,128)"/>
		<line x1="40" y1="90" x2="200" y2="90"
			 style="stroke:rgb(128,128,128)"/>
		<line x1="30" y1="20" x2="30" y2="70"
			 style="stroke:rgb(128,128,128);marker-start:url(#startArrow);marker-end:url(#endArrow)"/>
		<text x="18" y="47" style="text-anchor:middle;font-size:6">ascent</text>
		<line x1="160" y1="70" x2="160" y2="90"
			 style="stroke:rgb(128,128,128);marker-start:url(#startArrow);marker-end:url(#endArrow)"/>
		<text x="174" y="82" style="text-anchor:middle;font-size:6">descent</text>
		<line x1="30" y1="75" x2="60" y2="75"
			 style="stroke:rgb(128,128,128);marker-start:url(#startArrow);marker-end:url(#endArrow)"/>
		<text x="45" y="85" style="text-anchor:middle;font-size:6">dx="30"</text>
		<circle r="2" cx="60" cy="70" style="stroke-width:0.2;stroke:black;fill:rgb(255,255,255)"/>
		<text x="63" y="79" style="font-size:8">(60,70)</text>
	</g>
</svg>
