<?xml version="1.0" encoding="UTF-8" standalone="no" ?> 
<!DOCTYPE svg PUBLIC "-//W3C//DTD SVG 1.0//EN"
         "http://www.w3.org/TR/SVG/DTD/svg10.dtd">
<svg width="400" height="200" xmlns="http://www.w3.org/2000/svg" viewBox="-50 -50 200 100">
<defs>
     <g id="pallet" stroke="black" stroke-width="0.2" fill="tan" >
       <defs>
         <rect id="block" width="16" height="12" />
       </defs>
       <rect x="-66"   y="-15" width="132" height="3" />
       <use xlink:href="#block" x="-66" y="-12" />
       <use xlink:href="#block" x="-8" y="-12" />
       <use xlink:href="#block" x="50" y="-12" />
     </g>
<g id="system" transform="scale(0.25)">
<path d="M0 0 h60 M60 5l30 -5l-30 -5z" stroke="black" stroke-width="1" />
<path d="M0 0 v60 M5 60l-5 30l-5 -30z" stroke="black" stroke-width="1" />
<circle cx="0" cy="0" r="5" stroke="black" stroke-width="1"/>
</g>

</defs>
<use x="50" y="0" xlink:href="#pallet"/>
<text x="-40" y="-3">15</text>
<text x="50" y="20" text-anchor="middle">132</text>
<g stroke-width="0.5" stroke="black" fill="none">
<path d="M-22 -15v15 M-23 -15h2 M-23 0h2"/>
<path d="M-16 5h132 M-16 4v2 M116 4v2"/>
</g>
<use x="-16" y="-15" xlink:href="#system" fill="blue"/>
</svg>