<?xml version="1.0" encoding="UTF-8" standalone="no" ?> 
<!DOCTYPE svg PUBLIC "-//W3C//DTD SVG 1.0//EN"
         "http://www.w3.org/TR/SVG/DTD/svg10.dtd">
<svg width="300" height="300" xmlns="http://www.w3.org/2000/svg" viewBox="0 0 300 300">
<defs>
<linearGradient  id="zylinderShade" x2="0%" y2="50%" spreadMethod="reflect">
      <stop offset="0%" stop-color="darkslategray"/>
      <stop offset="100%" stop-color="white"/>
    </linearGradient>
    <g id="screw" stroke="black" stroke-linejoin="round" >
      <path fill="url(#zylinderShade)" d="M0,-36 -4,-40 -4,40 0,36 z 
                                          M-32,-36 -28,-40 -28,40 -32,36 z 
                                          M-4,-40 -28,-40 -28,40 -4,40 z" />
      <path fill="url(#zylinderShade)" d="M0,-16 120,-16 120,16 0,16 z 
                                          M120,-16 120,16 124,12 124,-12 120,-16 z" />
      <path stroke-width="0.4" fill="none" stroke-linecap="round" 
            stroke-dasharray="24 12 4 12" d="M-40,0 132,0" />
      <path stroke-width="0.4" fill="none" stroke-linecap="round" 
            d="M0,-12 124,-12 M0,12 124,12" />
    </g>
</defs>
<use xlink:href="#screw" transform="scale(0.5,1) rotate(90,100,100)" x="100" y="100" />
<use xlink:href="#screw" transform="rotate(90,150,100) scale(0.5,1)" x="300" y="100" />

</svg>
