<?xml version="1.0" ?>
<svg width="800" height="600" viewBox="0 0 400 300">
  <defs>
    <pattern id="gridPattern" width="10" height="10" patternUnits="userSpaceOnUse">
      <path d="M10,0 H0 V10" fill="none" stroke="gray" stroke-width="0.25"/>
    </pattern>
    <marker id="tick" viewBox="-10 -5 10 10" markerUnits="strokeWidth"
            markerWidth="10" markerHeight="10" orient="auto">
      <path d="M0,-2 V2" stroke="black"/>
    </marker>
    <marker id="endArrow" viewBox="-10 -5 10 10" markerUnits="strokeWidth"
            markerWidth="10" markerHeight="10" orient="auto">
      <path d="M-10,-2 L0,0 -10,2 z" fill="black" stroke="none"/>
    </marker>
    <marker id="startDimArrow" viewBox="0 -5 10 10" markerUnits="strokeWidth"
            markerWidth="10" markerHeight="10" orient="auto">
      <path d="M0,0 L10,-2 10,2 z M0,-5 L0,5" stroke="black" />
    </marker>
    <marker id="endDimArrow" viewBox="-10 -5 10 10" markerUnits="strokeWidth"
            markerWidth="10" markerHeight="10" orient="auto">
      <path d="M-10,-2 L0,0 -10,2 z M0,-5 L0,5" stroke="black" />
    </marker>
    <circle id="node" r="2" stroke-width="0.6" fill="white" />
    <path id="arrow" d="m0,0l-10-2v4z" stroke="none" />
    <g id="coords" stroke="black">
      <path d="M15,0 H0 V15" fill="none" stroke-width="0.5"/>
      <use xlink:href="#arrow" transform="translate(20,0) scale(0.5)" />
      <use xlink:href="#arrow" transform="translate(0,20) rotate(90) scale(0.5)" />
      <circle r="1" stroke-width="0.2" fill="white" />
    </g>
  </defs>
  <rect id="grid" width="240" height="130" stroke="gray" stroke-width="0.25" fill="url(#gridPattern)" /> 
  <!-- grid -->
  <use xlink:href="#coords" />
  <text x="3" y="9" font-size="8">(0,0)</text>
	<!-- example -->
	<rect x="40" y="10" width="30" height="20" stroke="black" stroke-width="0.75"
				stroke-dasharray="10 10 10 10" stroke-dashoffset="0" fill="silver" fill-opacity="0.4"  />
	<rect x="90" y="10" width="30" height="20" stroke="black" stroke-width="0.75"
				stroke-dasharray="10 10 10 10" stroke-dashoffset="-10" fill="silver" fill-opacity="0.4"  />
	<rect x="140" y="10" width="40" height="20" stroke="black" stroke-width="0.75"
				stroke-dasharray="10 10 10 10" stroke-dashoffset="5" fill="silver" fill-opacity="0.4"  />
	<rect x="40" y="40" width="140" height="20" stroke="black" stroke-width="0.75" 
				stroke-dasharray="6 3 2 3" stroke-dashoffset="-17.5" fill="silver" fill-opacity="0.4"  />
  <rect x="40" y="70" width="140" height="20" rx="5" ry="5" 
  			stroke-dasharray="10 5 10 5" stroke-dashoffset="500"
  			stroke="darkslategray" stroke-width="2" fill="silver" fill-opacity="0.4" />
  <rect x="40" y="100" width="140" height="20" rx="40" ry="20" 
  			stroke-dasharray="10 5 10 5" stroke-dashoffset="7"
  			stroke="darkslategray" stroke-width="2" fill="silver" fill-opacity="0.4" />
  <!-- decoratation -->
</svg>
