<?xml version="1.0" ?>
<svg width="800" height="600" viewBox="0 0 400 300">
  <defs>
    <pattern id="gridPattern" width="10" height="10" patternUnits="userSpaceOnUse">
      <path d="M10,0 H0 V10" fill="none" stroke="gray" stroke-width="0.25"/>
    </pattern>
    <marker id="tick" viewBox="-10 -5 10 10" markerUnits="strokeWidth"
            markerWidth="10" markerHeight="10" orient="auto">
      <path d="M0,-2 V2" stroke="black"/>
    </marker>
    <marker id="endArrow" viewBox="-10 -5 10 10" markerUnits="strokeWidth"
            markerWidth="10" markerHeight="10" orient="auto">
      <path d="M-10,-2 L0,0 -10,2 z" fill="black" stroke="none"/>
    </marker>
    <marker id="startDimArrow" viewBox="0 -5 10 10" markerUnits="strokeWidth"
            markerWidth="10" markerHeight="10" orient="auto">
      <path d="M0,0 L10,-2 10,2 z M0,-5 L0,5" stroke="black" />
    </marker>
    <marker id="endDimArrow" viewBox="-10 -5 10 10" markerUnits="strokeWidth"
            markerWidth="10" markerHeight="10" orient="auto">
      <path d="M-10,-2 L0,0 -10,2 z M0,-5 L0,5" stroke="black" />
    </marker>
    <circle id="node" r="2" stroke-width="0.6" fill="white" />
    <path id="arrow" d="m0,0l-10-2v4z" stroke="none" />
    <g id="coords" stroke="black">
      <path d="M15,0 H0 V15" fill="none" stroke-width="0.5"/>
      <use xlink:href="#arrow" transform="translate(20,0) scale(0.5)" />
      <use xlink:href="#arrow" transform="translate(0,20) rotate(90) scale(0.5)" />
      <circle r="1" stroke-width="0.2" fill="white" />
    </g>
  </defs>
  <rect id="grid" width="240" height="130" stroke="gray" stroke-width="0.25" fill="url(#gridPattern)" /> 
  <!-- grid -->
  <use xlink:href="#coords" />
  <text x="3" y="9" font-size="8">(0,0)</text>
	<!-- example -->
  <line x1="40" y1="20" x2="200" y2="20"
   			stroke-dasharray="1 10"
        fill="none" stroke="darkslategray" stroke-width="2" stroke-linecap="round" />
  <line x1="40" y1="40" x2="200" y2="40"
   			stroke-dasharray="10 10 10 10"
        fill="none" stroke="darkslategray" stroke-width="2" stroke-linecap="round" />
  <line x1="40" y1="60" x2="200" y2="60"
   			stroke-dasharray="10 10 1 10"
        fill="none" stroke="darkslategray" stroke-width="2" stroke-linecap="round" />
  <line x1="40" y1="80" x2="200" y2="80"
   			stroke-dasharray="1 10 10 10 1 10"
        fill="none" stroke="darkslategray" stroke-width="2" stroke-linecap="round" />
  <line x1="40" y1="100" x2="200" y2="100"
   			stroke-dasharray="1 10 10 10 10 10"
        fill="none" stroke="darkslategray" stroke-width="2" stroke-linecap="round" />
  <!-- decoratation -->
</svg>
