<?xml version="1.0" standalone="no"?>
<!DOCTYPE svg PUBLIC "-//W3C//DTD SVG 1.0//EN"
	"http://www.w3.org/TR/2001/REC-SVG-20010904/DTD/svg10.dtd">
<svg width="800" height="600" viewBox="0 0 400 300">
	<defs>
		<pattern id="gridPattern" width="10" height="10" patternUnits="userSpaceOnUse">
			<path d="M10 0 L0 0 L0 10" style="fill:none;stroke:rgb(128,128,128);stroke-width:0.25"/>
		</pattern>
		<marker id="tick" viewBox="-10 -5 10 10" markerUnits="strokeWidth"
			markerWidth="10" markerHeight="10" orient="auto">
			<path d="M0 -2 L0 2" style="stroke:rgb(0,0,0)"/>
		</marker>
		<marker id="endArrow" viewBox="-10 -5 10 10" markerUnits="strokeWidth"
			markerWidth="10" markerHeight="10" orient="auto">
			<path d="M-10 -2 L0 0 L-10 2 z" style="fill:rgb(0,0,0);stroke:none"/>
		</marker>
		<circle id="node" r="2" style="stroke-width:0.6;fill:rgb(255,255,255)"/>
		<path id="arrow" d="M0 0 L-10 -2 L-10 2 z"
			 style="stroke:none"/>
		<g id="coords" style="stroke:rgb(0,0,0)">
			<path d="M15 0 L0 0 L0 15" style="fill:none;stroke-width:0.5"/>
			<use xlink:href="#arrow" transform="translate(20 0) scale(0.5)"/>
			<use xlink:href="#arrow" transform="translate(0 20) rotate(90) scale(0.5)"/>
			<circle r="1" style="stroke-width:0.2;fill:rgb(255,255,255)"/>
		</g>
	</defs>
	<rect id="grid" width="200" height="100"
		 style="stroke:rgb(128,128,128);stroke-width:0.25;fill:url(#gridPattern)"/>
<!-- example -->
	<rect x="80" y="10" width="40" height="40"
		fill="none" stroke="blue" />
	<rect x="40" y="50" width="40" height="40"
		fill="none" stroke="red" />
	<text x="83" y="19" style="font-size:8;">(80,10)</text>
	<text x="43" y="59" style="font-size:8;">(40,50)</text>
<!-- grid -->
	<use xlink:href="#coords"/>
	<text x="3" y="9" style="font-size:8">(0,0)</text>
	<use xlink:href="#node" x="80" y="10"
		 style="stroke:rgb(47,79,79)"/>
	<use xlink:href="#node" x="40" y="50"
		 style="stroke:rgb(47,79,79)"/>
</svg>
 