<?xml version="1.0" standalone="no"?>
<!DOCTYPE svg PUBLIC "-//W3C//DTD SVG 1.0//EN"
	"http://www.w3.org/TR/2001/REC-SVG-20010904/DTD/svg10.dtd">
<svg width="800" height="600" viewBox="0 0 400 300">
	<defs>
		<pattern id="gridPattern" width="10" height="10" patternUnits="userSpaceOnUse">
			<path d="M10 0 L0 0 L0 10" style="fill:none;stroke:rgb(128,128,128);stroke-width:0.25"/>
		</pattern>
		<circle id="node" r="2" style="stroke-width:0.6;fill:rgb(255,255,255)"/>
		<path id="arrow" d="M0 0 L-10 -2 L-10 2 z"
			 style="stroke:none"/>
		<g id="coords" style="stroke:rgb(0,0,0)">
			<path d="M15 0 L0 0 L0 15" style="fill:none;stroke-width:0.5"/>
			<use xlink:href="#arrow" transform="translate(20 0) scale(0.5)"/>
			<use xlink:href="#arrow" transform="translate(0 20) rotate(90) scale(0.5)"/>
			<circle r="1" style="stroke-width:0.2;fill:rgb(255,255,255)"/>
		</g>
		<marker id="startArrow" viewBox="0 -5 10 10" markerUnits="userSpaceOnUse"
			refX="0" refY="0" markerWidth="10" markerHeight="10" orient="auto">
			<path d="M0 0 L10 -2 L10 2 zM0 -5 L0 5"
				 style="stroke:rgb(0,0,0)"/>
		</marker>
		<marker id="endArrow" viewBox="-10 -5 10 10" markerUnits="strokeWidth"
			refX="0" refY="0" markerWidth="10" markerHeight="10" orient="auto">
			<path d="M-10 -2 L0 0 L-10 2 zM0 -5 L0 5"
				 style="stroke:rgb(0,0,0)"/>
		</marker>
	</defs>
	<rect id="grid" x="-10" y="0" width="200" height="110"
		 style="stroke:rgb(128,128,128);stroke-width:0.25;fill:url(#gridPattern)"/>

<!-- example -->
	<!-- Line 1 -->
<line x1="20" y1="20" x2="20" y2="90"
	fill="black" stroke="indigo" stroke-width="20"
	stroke-linecap="butt"
	/>
<!-- Line 2 -->
<line x1="60" y1="20" x2="60" y2="90"
	fill="black" stroke="indigo" stroke-width="20"
	stroke-linecap="round"
	/>
<!-- Line 3 -->
<line x1="100" y1="20" x2="100" y2="90"
	fill="black" stroke="indigo" stroke-width="20"
	stroke-linecap="square"
	/>
<!-- Guide Lines -->
<line x1="0" y1="20" x2="120" y2="20"
	fill="black" stroke="black" stroke-width="2"/>
<line x1="0" y1="90" x2="120" y2="90"
	fill="black" stroke="black" stroke-width="2"/>
</svg>
 