<?xml version="1.0" encoding="UTF-8" standalone="no" ?> 
<!DOCTYPE svg PUBLIC "-//W3C//DTD SVG 1.0//EN"
         "http://www.w3.org/TR/SVG/DTD/svg10.dtd">
<svg width="100%" height="100%" xmlns="http://www.w3.org/2000/svg">
  <defs>
    <marker id="startArrow" viewBox="0 -10 20 20" markerUnits="userSpaceOnUse"
            refX="0" refY="0" markerWidth="20" markerHeight="20" orient="auto">
      <path d="M0,0 L20,-4 20,4 z M0,-10 L0,10" stroke="black" />
    </marker>
    <marker id="endArrow" viewBox="-20 -10 20 20" markerUnits="strokeWidth"
            refX="0" refY="0" markerWidth="20" markerHeight="20" orient="auto">
      <path d="M-20,-4 L0,0 -20,4 z M0,-10 L0,10" stroke="black" />
    </marker>
    <pattern id="holes" width="10" height="10" patternUnits="userSpaceOnUse">
      <rect width="10" height="10" stroke="none" fill="steelblue" />
      <circle cx="5" cy="5" r="2" fill="lightgray" />
    </pattern> 
    <g id="uprightPost">
      <rect width="10" height="150" fill="url(#holes)" stroke="black" />
    </g>
    <g id="column">
      <defs>
        <g id="beam">
          <rect x="0" width="3" height="16" />
          <rect x="5" width="126" height="8" />
          <rect x="133" width="3" height="16" />
        </g>
      </defs>
      <use xlink:href="#beam" x="12" y="0" />
      <use xlink:href="#beam" x="12" y="50" />
      <use xlink:href="#beam" x="12" y="100" />
      <use xlink:href="#uprightPost" x="150" y="0" />
    </g>
    <g id="rack" fill="steelblue" stroke="black" >
      <g id="ground">
        <rect x="-10" y="150" width="480" height="10" stroke="none" fill="lightgray" />
        <line x1="-10" y1="150" x2="470" y2="150" stroke="black" />
      </g>
      <use xlink:href="#uprightPost" x="0" y="0" />
      <use xlink:href="#column" x="0" y="0" />
      <use xlink:href="#column" x="150" y="0" />
      <use xlink:href="#column" x="300" y="0" />
    </g>
  </defs>
  <use xlink:href="#rack" x="50" y="20" />
  <g id="dimensions">
    <line x1="50" y1="210" x2="512" y2="210" stroke="black" 
          marker-start="url(#startArrow)" marker-end="url(#endArrow)" />
    <text x="281" y="205" text-anchor="middle">462</text>
    <line x1="540" y1="20" x2="540" y2="170" stroke="black" 
          marker-start="url(#startArrow)" marker-end="url(#endArrow)" />
    <text x="545" y="95">150</text>
  </g>
</svg>

