<?xml version="1.0" ?>
<!DOCTYPE svg PUBLIC "-//W3C//DTD SVG 1.0//EN"
         "http://www.w3.org/TR/SVG/DTD/svg10.dtd">
<svg width="600" height="400" viewBox="0 0 300 200">
  <defs>
    <circle id="crvpnt" r="2" stroke="black" fill="lightgray" />
    <circle id="wheel" r="10" stroke="black" stroke-width="5" 
            fill="lightgray" />  
  </defs>
  <path fill="silver" stroke="black" stroke-width="2"
        d="M 50,100 A40,35 0 0 1 90,65 A 10,20 0 0 0 100 50 A 55 50 0 0 1 170 100 Z" />
  <use xlink:href="#crvpnt" x="50" y="100" />
  <use xlink:href="#crvpnt" x="90" y="65" />
  <use xlink:href="#crvpnt" x="100" y="50" />
  <use xlink:href="#crvpnt" x="170" y="100" />
  <use xlink:href="#wheel"  x="80" y="100" />
  <use xlink:href="#wheel"  x="145" y="100" />
  <text x="20" y="140" font-size="7">
d="M 50,100 A40,35 0 0 1 90,65A 10,20 0 0 0 100,50A 55,50 0 0 1 170,100 Z"
  </text>
</svg>
