<?xml version="1.0" ?>
<!DOCTYPE svg PUBLIC "-//W3C//DTD SVG 1.0//EN"
         "http://www.w3.org/TR/SVG/DTD/svg10.dtd">
<svg width="640" height="340" viewBox="-10 -10 320 170">
<defs>
<pattern id="Pat01" width="10" height="10" patternUnits="userSpaceOnUse">
	<rect width="10" height="10" fill="#FFFFFF" stroke="#000000" stroke-width="0.1"/>
</pattern>
<circle id="dot" cx="0" cy="0" r="2" stroke="black" stroke-width="1" fill="white"/>
<circle id="dot2" cx="0" cy="0" r="2" stroke="black" stroke-width="1" fill="lightGray"/>
</defs>
<rect x="0" y="0" width="301" height="151" fill="url(#Pat01)"/>
<path d="M10,70 Q50,10 50,70 Q50,110 90,70" stroke="black" fill="none"/>
<path d="M10,70 L50,10 L50,110 L90,70" fill="none" stroke="black" stroke-dasharray="2 2"/>
<use x="50" y="10" xlink:href="#dot"/>
<use x="10" y="70" xlink:href="#dot2"/>
<use x="50" y="70" xlink:href="#dot2"/>
<use x="90" y="70" xlink:href="#dot2"/>
<use x="50" y="110" xlink:href="#dot"/>
<path d="M110,70 Q150,10 150,70 Q150,30 190,70" stroke="black" fill="none"/>
<path d="M110,70 L150,10 L150,70 M150,30 L190,70" fill="none" stroke="black" stroke-dasharray="2 2"/>
<use x="150" y="10" xlink:href="#dot"/>
<use x="110" y="70" xlink:href="#dot2"/>
<use x="150" y="70" xlink:href="#dot2"/>
<use x="190" y="70" xlink:href="#dot2"/>
<use x="150" y="30" xlink:href="#dot"/>
<path d="M210,70 Q250,10 250,70 Q290,70 250,110" stroke="black" fill="none"/>
<path d="M210,70 L250,10 L250,70 L290,70 L250,110" fill="none" stroke="black" stroke-dasharray="2 2"/>
<use x="250" y="10" xlink:href="#dot"/>
<use x="210" y="70" xlink:href="#dot2"/>
<use x="250" y="70" xlink:href="#dot2"/>
<use x="250" y="110" xlink:href="#dot2"/>
<use x="290" y="70" xlink:href="#dot"/>
<text x="10" y="128" font-size="7">d="M 10,70"
<tspan x="20" dy="1em">Q 50,10 50,70</tspan>
<tspan x="20" dy="1em">Q 50,110 90,70"</tspan>
</text>

<text x="110" y="128" font-size="7">d="M 110,70"
<tspan x="120" dy="1em">Q 150,10 150,70</tspan>
<tspan x="120" dy="1em">Q 150,30 190,70"</tspan>
</text>
<text x="210" y="128" font-size="7">d="M 210,70"
<tspan x="220" dy="1em">Q 250,10 250,70</tspan>
<tspan x="220" dy="1em">Q 290,70 250,110"</tspan>
</text>


</svg>
