<?xml version="1.0" ?>
<!DOCTYPE svg PUBLIC "-//W3C//DTD SVG 1.0//EN"
        "http://www.w3.org/TR/SVG/DTD/svg10.dtd">
<svg width="420" height="300" viewBox="-20 -10 140 100" xmlns="http://www.w3.org/2000/svg" xmlns:xlink="http://www.w3.org/1999/xlink">
    <defs>
        <pattern id="Pat01" width="10" height="10" patternUnits="userSpaceOnUse">
            <rect width="10" height="10" fill="#FFFFFF" stroke="#000000" stroke-width="0.1"/>
        </pattern>
        <marker id="Marker01" viewBox="0 0 10 10" refX="0" refY="5"
                markerUnits="strokeWidth" markerWidth="10" markerHeight="6"
                orient="auto">
            <path d="M 0 0 L 15 5 L 0 10 z"/>
        </marker>
        <marker id="Marker02" viewBox="0 0 10 10" refX="0" refY="5"
                markerUnits="strokeWidth" markerWidth="10" markerHeight="6"
                orient="auto">
            <path d="M 0 0 L 15 5 L 0 10 z" fill="orange"/>
        </marker>
        <circle id="dot" cx="0" cy="0" r="1" stroke-width="0.3" fill="white"/>
        <g id="origin">
            <path d="M0,0 h8" stroke-width="0.3" marker-end="url(#Marker01)"/>
            <path d="M0,0 v8" stroke-width="0.3" marker-end="url(#Marker01)"/>
        </g>
        <g id="origin2">
            <path d="M0,0 h8" stroke-width="0.3" marker-end="url(#Marker02)"/>
            <path d="M0,0 v8" stroke-width="0.3" marker-end="url(#Marker02)"/>
        </g>
    </defs>
    <rect x="0" y="0" width="101" height="61" fill="url(#Pat01)"/>
    <path d="M30,30 A20 10 0 0 1 70,30" stroke-width="1" stroke="black" fill="none"/>
    <path d="M30,30 A20 10 0 1 0 70,30" stroke-width="0.5" stroke="black" stroke-dasharray="1 1" fill="none"/>
    <path d="M30,30 A30 15 45 0 1 70,30" stroke-width="1" stroke="orange" fill="none"/>
    <path d="M30,30 A30 15 45 1 0 70,30" stroke-width="0.5" stroke="orange" stroke-dasharray="1 1" fill="none"/>
    <use transform="rotate(45,50,30)" x="50" y="30" xlink:href="#origin2" stroke="orange" fill="orange"/>
    <use x="50" y="30" xlink:href="#origin" stroke="black" fill="red"/>
    <use x="30" y="30" xlink:href="#dot" stroke="black"/>
    <use x="70" y="30" xlink:href="#dot" stroke="black"/>
    <use x="50" y="30" xlink:href="#dot" stroke="orange"/>
    <text x="6" y="6" font-size="4" text-anchor="middle">(0,0)</text>
</svg>
